<svg width="25" height="25" viewBox="0 0 25 25" fill="none" xmlns="http://www.w3.org/2000/svg">
<path d="M22.5645 13.2344C22.3327 12.367 21.898 11.5671 21.2962 10.9007C20.6944 10.2343 19.9428 9.72055 19.1035 9.40178C18.2641 9.083 17.3609 8.96834 16.4685 9.06727C15.5761 9.16619 14.72 9.47585 13.9708 9.97072C13.9034 9.93068 13.8331 9.89259 13.7618 9.85841L15.4083 3.28419C15.4381 3.16519 15.4299 3.03982 15.3847 2.92575C15.3395 2.81169 15.2596 2.7147 15.1563 2.64845C14.5086 2.2352 13.7835 1.95806 13.0253 1.8339C12.267 1.70974 11.4914 1.74115 10.7457 1.92622C9.99996 2.11129 9.29968 2.44615 8.68747 2.91043C8.07525 3.37471 7.56389 3.95869 7.18451 4.62685C6.80513 5.29501 6.56566 6.03337 6.48067 6.79701C6.39568 7.56064 6.46695 8.33359 6.69014 9.06881C6.91333 9.80403 7.28378 10.4862 7.77893 11.0737C8.27409 11.6612 8.88361 12.1418 9.5704 12.4863V12.5C9.5704 12.5752 9.5704 12.6504 9.58017 12.7246L3.06357 14.586C2.94517 14.6192 2.84024 14.6889 2.76364 14.7851C2.68705 14.8814 2.64268 14.9992 2.63681 15.1221C2.60807 15.8868 2.73458 16.6493 3.0087 17.3638C3.28282 18.0782 3.69886 18.7297 4.23171 19.2789C4.76456 19.8281 5.40317 20.2636 6.109 20.5592C6.81482 20.8548 7.57322 21.0043 8.33842 20.9987C9.10362 20.9931 9.85974 20.8325 10.5612 20.5266C11.2626 20.2207 11.8947 19.7758 12.4195 19.2188C12.9442 18.6619 13.3506 18.0044 13.6142 17.286C13.8779 16.5676 13.9932 15.8033 13.9532 15.0391C14.0216 15 14.089 14.958 14.1544 14.9131L19.0245 19.6289C19.113 19.7142 19.226 19.7695 19.3476 19.7871C19.4692 19.8046 19.5933 19.7834 19.7022 19.7266C20.848 19.1321 21.7564 18.1642 22.277 16.983C22.7975 15.8018 22.899 14.4782 22.5645 13.2315V13.2344ZM10.7423 12.5C10.7423 12.1524 10.8454 11.8125 11.0385 11.5234C11.2317 11.2344 11.5062 11.0091 11.8274 10.876C12.1486 10.743 12.502 10.7082 12.843 10.776C13.184 10.8438 13.4972 11.0112 13.743 11.2571C13.9889 11.5029 14.1563 11.8161 14.2241 12.1571C14.2919 12.4981 14.2571 12.8515 14.1241 13.1727C13.9911 13.4939 13.7657 13.7684 13.4767 13.9616C13.1876 14.1547 12.8478 14.2578 12.5001 14.2578C12.0339 14.2578 11.5868 14.0726 11.2571 13.743C10.9275 13.4133 10.7423 12.9662 10.7423 12.5ZM7.61728 7.42189C7.61703 6.65133 7.81501 5.89367 8.19217 5.22173C8.56933 4.54978 9.11299 3.98615 9.7709 3.58501C10.4288 3.18387 11.1788 2.95871 11.9489 2.93117C12.719 2.90363 13.4832 3.07463 14.1681 3.42775L12.629 9.57033H12.5001C11.9365 9.5706 11.3849 9.73345 10.9115 10.0393C10.4381 10.3452 10.063 10.7812 9.83114 11.2949C9.15572 10.8993 8.59584 10.3334 8.20738 9.65384C7.81892 8.97424 7.61545 8.20467 7.61728 7.42189ZM10.547 19.2676C9.87968 19.654 9.12417 19.8621 8.35314 19.872C7.58212 19.8818 6.82154 19.693 6.14463 19.3237C5.46771 18.9545 4.89724 18.4172 4.48812 17.7636C4.079 17.11 3.84502 16.362 3.80868 15.5918L9.90146 13.8516C10.1488 14.3272 10.5218 14.7258 10.98 15.0041C11.4382 15.2824 11.964 15.4296 12.5001 15.4297C12.5979 15.4299 12.6957 15.425 12.7931 15.4151C12.7879 16.1975 12.5778 16.9649 12.1838 17.6408C11.7897 18.3168 11.2253 18.8777 10.547 19.2676ZM20.9864 16.9473C20.6278 17.5681 20.1255 18.0939 19.5216 18.4805L14.9679 14.0742C15.2836 13.581 15.4438 13.0041 15.4276 12.4187C15.4114 11.8332 15.2196 11.2661 14.877 10.791C15.7345 10.3055 16.7279 10.1153 17.704 10.2499C18.6802 10.3844 19.5851 10.8362 20.2792 11.5357C20.9733 12.2351 21.4182 13.1434 21.5453 14.1206C21.6724 15.0978 21.4746 16.0896 20.9825 16.9434L20.9864 16.9473Z" fill="#F8F9FB"/>
</svg>
