<svg width="25" height="25" viewBox="0 0 25 25" fill="none" xmlns="http://www.w3.org/2000/svg">
<path d="M17.1874 16.6666C15.8599 16.6666 14.5737 16.2057 13.5484 15.3625C12.5231 14.5194 11.8225 13.3464 11.5661 12.0439C11.3098 10.7415 11.5136 9.39043 12.1429 8.22162C12.7721 7.05281 13.7877 6.13878 15.0161 5.6357C16.2446 5.13262 17.6095 5.07171 18.8779 5.46338C20.1462 5.85505 21.2392 6.67499 21.97 7.78311C22.7009 8.89123 23.0243 10.2187 22.8849 11.5388C22.7456 12.8589 22.1522 14.0897 21.2061 15.0208" stroke="#F8F9FB" stroke-width="1.5" stroke-linecap="round"/>
<path d="M17.1875 20.8334V16.6667M17.1875 20.8334H20.3125M17.1875 20.8334H14.0625" stroke="#F8F9FB" stroke-width="1.5" stroke-linecap="round" stroke-linejoin="round"/>
<path d="M2.08325 11.4583V10.6771C1.87605 10.6771 1.67734 10.7594 1.53082 10.9059C1.38431 11.0524 1.302 11.2511 1.302 11.4583H2.08325ZM8.33325 11.4583H9.1145C9.1145 11.2511 9.03219 11.0524 8.88568 10.9059C8.73917 10.7594 8.54045 10.6771 8.33325 10.6771V11.4583ZM9.1145 17.7083C9.1145 17.5011 9.03219 17.3024 8.88568 17.1559C8.73917 17.0094 8.54045 16.9271 8.33325 16.9271C8.12605 16.9271 7.92734 17.0094 7.78082 17.1559C7.63431 17.3024 7.552 17.5011 7.552 17.7083H9.1145ZM7.552 13.5416C7.552 13.7488 7.63431 13.9476 7.78082 14.0941C7.92734 14.2406 8.12605 14.3229 8.33325 14.3229C8.54045 14.3229 8.73917 14.2406 8.88568 14.0941C9.03219 13.9476 9.1145 13.7488 9.1145 13.5416H7.552ZM2.08325 12.2396H8.33325V10.6771H2.08325V12.2396ZM2.8645 17.7083V11.4583H1.302V17.7083H2.8645ZM5.20825 20.0521C4.58665 20.0521 3.99051 19.8051 3.55097 19.3656C3.11143 18.9261 2.8645 18.3299 2.8645 17.7083H1.302C1.302 18.7443 1.71355 19.7379 2.44612 20.4704C3.17868 21.203 4.17225 21.6146 5.20825 21.6146V20.0521ZM7.552 17.7083C7.552 18.3299 7.30507 18.9261 6.86553 19.3656C6.42599 19.8051 5.82985 20.0521 5.20825 20.0521V21.6146C5.72123 21.6146 6.22918 21.5135 6.70311 21.3172C7.17704 21.1209 7.60766 20.8332 7.97039 20.4704C8.33312 20.1077 8.62085 19.6771 8.81716 19.2032C9.01346 18.7292 9.1145 18.2213 9.1145 17.7083H7.552ZM7.552 11.4583V13.5416H9.1145V11.4583H7.552Z" fill="#F8F9FB"/>
<path d="M3.125 11.4583H7.29167V5.85208C7.29157 5.67459 7.24613 5.50007 7.15964 5.34508C7.07316 5.19008 6.9485 5.05976 6.79751 4.96647C6.64651 4.87318 6.47418 4.82002 6.29687 4.81203C6.11956 4.80404 5.94315 4.8415 5.78437 4.92083L3.70104 5.9625C3.52804 6.04895 3.38252 6.18185 3.28078 6.34633C3.17904 6.5108 3.1251 6.70035 3.125 6.89375V11.4583Z" stroke="#F8F9FB" stroke-width="1.5"/>
</svg>
