<svg width="25" height="25" viewBox="0 0 25 25" fill="none" xmlns="http://www.w3.org/2000/svg">
<path d="M18.3594 0.78125H6.64062C6.01924 0.781948 5.4235 1.0291 4.98411 1.46849C4.54473 1.90788 4.29757 2.50361 4.29688 3.125V22.6562C4.29734 23.0705 4.46211 23.4677 4.75503 23.7606C5.04796 24.0535 5.44512 24.2183 5.85938 24.2188H19.1406C19.5549 24.2183 19.952 24.0535 20.245 23.7606C20.5379 23.4677 20.7027 23.0705 20.7031 22.6562V3.125C20.7024 2.50361 20.4553 1.90788 20.0159 1.46849C19.5765 1.0291 18.9808 0.781948 18.3594 0.78125ZM19.1406 22.6562H5.85938V11.7188H19.1406V22.6562ZM19.1406 10.1562H5.85938V3.125C5.85962 2.91788 5.94201 2.7193 6.08847 2.57284C6.23493 2.42638 6.4335 2.344 6.64062 2.34375H18.3594C18.5665 2.344 18.7651 2.42638 18.9115 2.57284C19.058 2.7193 19.1404 2.91788 19.1406 3.125V10.1562Z" fill="#F8F9FB"/>
<path d="M7.03125 13.6719H8.59375V18.3594H7.03125V13.6719ZM7.03125 5.07812H8.59375V8.20312H7.03125V5.07812Z" fill="#F8F9FB"/>
</svg>
