<svg width="25" height="25" viewBox="0 0 25 25" fill="none" xmlns="http://www.w3.org/2000/svg">
<path d="M4.69109 3.57141C3.92149 3.57141 3.18341 3.87713 2.63922 4.42132C2.09503 4.96551 1.78931 5.7036 1.78931 6.4732V15.8482C1.78931 16.6178 2.09503 17.3559 2.63922 17.9001C3.18341 18.4443 3.92149 18.75 4.69109 18.75H20.3134C21.083 18.75 21.8211 18.4443 22.3653 17.9001C22.9095 17.3559 23.2152 16.6178 23.2152 15.8482V6.4732C23.2152 5.7036 22.9095 4.96551 22.3653 4.42132C21.8211 3.87713 21.083 3.57141 20.3134 3.57141H4.69109ZM3.12859 6.4732C3.12859 5.6107 3.82859 4.9107 4.69109 4.9107H20.3134C21.1759 4.9107 21.8759 5.6107 21.8759 6.4732V15.8482C21.8759 16.2626 21.7113 16.66 21.4183 16.9531C21.1252 17.2461 20.7278 17.4107 20.3134 17.4107H4.69109C4.27669 17.4107 3.87926 17.2461 3.58624 16.9531C3.29321 16.66 3.12859 16.2626 3.12859 15.8482V6.4732ZM6.02681 20.5357C5.84921 20.5357 5.67888 20.6062 5.5533 20.7318C5.42772 20.8574 5.35716 21.0277 5.35716 21.2053C5.35716 21.3829 5.42772 21.5533 5.5533 21.6788C5.67888 21.8044 5.84921 21.875 6.02681 21.875H18.9732C19.1508 21.875 19.3212 21.8044 19.4467 21.6788C19.5723 21.5533 19.6429 21.3829 19.6429 21.2053C19.6429 21.0277 19.5723 20.8574 19.4467 20.7318C19.3212 20.6062 19.1508 20.5357 18.9732 20.5357H6.02681Z" fill="#F8F9FB"/>
</svg>
