<svg width="25" height="25" viewBox="0 0 25 25" fill="none" xmlns="http://www.w3.org/2000/svg">
<path d="M12.4999 5.46875C8.58115 5.46875 5.04443 7.09531 2.48975 9.69219L3.58896 10.7906C5.85928 8.47813 9.01162 7.03125 12.4999 7.03125C15.9882 7.03125 19.1405 8.47812 21.4108 10.7914L22.5101 9.69219C19.9554 7.09531 16.4179 5.46875 12.4999 5.46875ZM12.4999 9.375C9.65615 9.375 7.09521 10.5625 5.24912 12.4516L6.34756 13.55C7.91006 11.9445 10.0897 10.9375 12.4999 10.9375C14.9108 10.9375 17.0897 11.9453 18.6522 13.55L19.7507 12.4508C17.9046 10.5625 15.3444 9.375 12.4999 9.375ZM12.4999 13.2812C10.7327 13.2812 9.146 14.0289 8.00771 15.2102L9.10615 16.3086C9.54262 15.8466 10.0687 15.4785 10.6522 15.2266C11.2357 14.9748 11.8644 14.8445 12.4999 14.8438C13.8358 14.8438 15.039 15.4117 15.8937 16.3086L16.9921 15.2102C15.8569 14.0289 14.2671 13.2812 12.4999 13.2812ZM12.4999 17.1875C12.1722 17.1884 11.8484 17.2584 11.5497 17.3931C11.251 17.5277 10.984 17.7239 10.7663 17.9688L12.4999 19.7023L14.2335 17.9688C14.0158 17.7239 13.7488 17.5277 13.4501 17.3931C13.1514 17.2584 12.8276 17.1884 12.4999 17.1875Z" fill="#F8F9FB"/>
</svg>
