<?xml version="1.0" standalone="no"?>
<!DOCTYPE svg PUBLIC "-//W3C//DTD SVG 20010904//EN"
 "http://www.w3.org/TR/2001/REC-SVG-20010904/DTD/svg10.dtd">
<svg version="1.0" xmlns="http://www.w3.org/2000/svg"
 width="333.000000pt" height="333.000000pt" viewBox="0 0 333.000000 333.000000"
 preserveAspectRatio="xMidYMid meet">
<metadata>
Created by potrace 1.14, written by Peter Selinger 2001-2017
</metadata>
<g transform="translate(0.000000,333.000000) scale(0.100000,-0.100000)"
fill="#000000" stroke="none">
<path d="M0 2710 c0 -538 2 -620 15 -620 8 0 19 -9 25 -20 9 -18 8 -20 -15
-20 -21 0 -25 -5 -25 -30 0 -31 17 -39 38 -18 16 16 17 -5 1 -33 -8 -16 -13
-18 -25 -8 -12 10 -14 5 -14 -25 0 -21 4 -35 10 -31 5 3 7 12 3 20 -3 9 1 15
10 15 8 0 17 -9 20 -21 8 -30 25 -14 23 21 -1 16 1 30 6 30 4 0 9 19 9 43 1
24 3 31 6 17 8 -54 14 -71 22 -65 11 6 21 -19 20 -48 -1 -20 -2 -19 -13 6
l-12 28 -11 -36 c-12 -38 -5 -49 23 -38 15 5 16 2 11 -23 -4 -21 0 -37 14 -54
l20 -25 -2 45 c-3 65 18 117 45 112 9 -2 16 2 16 8 0 6 -8 10 -17 9 -10 -1
-24 -1 -30 0 -16 1 -17 43 -1 59 8 8 8 15 -2 27 -8 10 -9 15 -1 15 6 0 11 12
11 26 0 20 4 24 19 19 12 -4 21 0 25 12 4 10 2 19 -3 21 -13 4 -5 22 10 22 5
0 9 -18 9 -40 0 -44 2 -45 50 -29 l33 12 -29 16 c-29 15 -29 16 -5 19 13 2 27
-1 30 -7 4 -5 12 -6 20 -2 11 7 10 12 -1 30 -11 18 -11 23 2 31 8 5 25 10 38
10 12 0 22 5 22 10 0 6 -7 10 -16 10 -10 0 -2 13 23 37 l38 36 -25 8 c-20 5
-15 7 20 7 25 0 39 -2 32 -5 -10 -4 -10 -8 -1 -19 7 -8 14 -40 15 -72 2 -31
10 -120 18 -197 8 -77 15 -152 15 -166 1 -17 8 -28 19 -31 15 -4 17 1 13 39
-2 29 1 43 9 43 9 0 11 15 8 50 -3 33 -1 54 7 60 7 6 15 20 18 30 4 15 0 20
-14 20 -10 0 -19 5 -19 10 0 15 58 12 63 -2 2 -8 8 -9 13 -4 5 5 4 11 -3 13
-15 5 -18 69 -4 78 6 3 11 -12 13 -32 4 -46 31 -53 36 -10 2 15 9 27 17 27 9
0 12 -6 9 -15 -12 -31 9 -37 23 -6 18 37 11 70 -12 51 -17 -14 -36 -5 -29 15
4 8 10 13 14 10 13 -8 62 14 56 24 -3 5 1 11 9 15 8 3 15 1 15 -4 0 -6 5 -10
10 -10 6 0 10 9 10 20 0 13 7 20 20 20 25 0 26 25 3 39 -16 9 -16 10 -2 11 37
0 79 -13 79 -26 0 -23 20 -16 29 10 5 13 16 26 24 29 17 6 44 -23 49 -54 3
-26 46 -35 55 -12 3 8 13 11 25 7 18 -5 18 -4 8 16 -10 19 -9 21 7 18 13 -2
20 -15 24 -43 4 -31 6 -21 12 50 3 50 9 106 12 127 6 33 3 41 -33 80 -50 54
-79 114 -92 192 -18 98 -41 190 -52 201 -11 10 -8 -12 7 -47 4 -11 3 -18 -4
-18 -6 0 -14 14 -17 30 -7 30 -29 41 -37 18 -7 -23 -39 13 -34 38 3 15 0 21
-9 17 -12 -4 -50 54 -41 63 2 2 10 -7 17 -21 19 -35 32 -31 28 8 -2 18 -12 40
-25 50 -22 18 -32 57 -14 57 14 0 23 68 11 90 -6 11 -19 20 -28 20 -24 0 -64
29 -59 43 2 7 0 20 -4 29 -7 13 -4 20 11 28 11 6 25 8 30 5 6 -3 10 1 10 9 0
14 -45 16 -405 16 l-405 0 0 -620z m370 570 c0 -5 -4 -10 -10 -10 -5 0 -10 5
-10 10 0 6 5 10 10 10 6 0 10 -4 10 -10z m87 -106 c-3 -3 -12 -4 -19 -1 -8 3
-5 6 6 6 11 1 17 -2 13 -5z m23 -59 c0 -44 -4 -56 -20 -65 -17 -9 -22 -7 -29
12 -5 13 -6 25 -2 28 3 3 14 22 23 43 10 20 20 37 23 37 3 0 5 -25 5 -55z
m540 -495 c0 -11 -4 -20 -8 -20 -4 0 -8 9 -8 20 0 11 4 20 8 20 4 0 8 -9 8
-20z m-5 -50 c3 -5 1 -10 -4 -10 -6 0 -11 5 -11 10 0 6 2 10 4 10 3 0 8 -4 11
-10z m-40 -110 c3 -5 -1 -10 -10 -10 -9 0 -13 5 -10 10 3 6 8 10 10 10 2 0 7
-4 10 -10z m-81 -59 c3 -5 0 -11 -8 -14 -15 -6 -26 1 -26 15 0 11 27 10 34 -1z
m76 -21 c0 -5 -7 -10 -15 -10 -8 0 -15 5 -15 10 0 6 7 10 15 10 8 0 15 -4 15
-10z m-220 -72 c0 -16 -3 -19 -11 -11 -6 6 -8 16 -5 22 11 17 16 13 16 -11z
m310 -5 c0 -5 -5 -15 -10 -23 -8 -12 -10 -11 -10 8 0 12 5 22 10 22 6 0 10 -3
10 -7z m-277 -23 c-3 -11 -12 -20 -21 -20 -13 0 -12 3 3 20 10 11 19 20 21 20
1 0 0 -9 -3 -20z m-696 -82 c-3 -7 -5 -2 -5 12 0 14 2 19 5 13 2 -7 2 -19 0
-25z m3 -88 c0 -40 -15 -55 -22 -22 -4 15 10 62 19 62 1 0 3 -18 3 -40z m37
-52 c-3 -8 -6 -5 -6 6 -1 11 2 17 5 13 3 -3 4 -12 1 -19z"/>
<path d="M2074 3292 c-29 -33 -30 -38 -16 -51 8 -8 27 -14 42 -13 14 1 35 -6
46 -15 10 -10 28 -18 38 -18 11 0 21 -6 24 -12 2 -9 -8 -13 -35 -13 -27 0 -34
-3 -23 -10 8 -5 11 -12 7 -16 -3 -4 -14 -1 -22 6 -12 10 -19 10 -27 2 -9 -9
-8 -12 6 -12 19 0 52 -28 43 -36 -3 -3 -14 -1 -25 5 -19 10 -32 6 -32 -11 0
-4 6 -8 13 -8 19 0 37 -34 26 -51 -7 -11 -9 -9 -9 9 0 13 -6 22 -15 22 -11 0
-14 -7 -9 -24 7 -30 -30 -75 -43 -52 -12 20 -52 26 -67 10 -8 -8 -19 -14 -25
-14 -6 0 -11 -7 -11 -15 0 -18 -12 -19 -28 -3 -9 9 -12 7 -12 -9 0 -12 36 -71
80 -130 44 -59 87 -118 96 -130 19 -26 160 -209 211 -275 39 -50 65 -63 56
-28 -3 11 -11 20 -18 20 -7 0 -16 11 -19 25 -4 15 -11 23 -17 19 -8 -4 -9 1
-4 15 4 14 1 29 -8 39 -21 25 -27 48 -15 60 12 12 2 32 -16 32 -9 0 -12 9 -8
25 4 25 17 26 17 2 0 -7 8 -13 18 -15 15 -3 18 2 15 30 -3 29 -6 33 -33 34
-64 2 -70 3 -57 16 9 9 15 9 23 1 8 -8 21 -2 47 25 23 22 32 37 24 40 -9 3
-10 8 -2 17 7 9 6 16 -5 25 -14 11 -13 14 2 26 25 18 38 17 22 -2 -10 -13 -10
-17 1 -24 11 -7 11 -11 1 -24 -12 -14 -10 -16 7 -16 11 0 22 -5 24 -11 2 -5
18 -11 36 -11 21 -1 32 -6 32 -16 0 -9 -7 -13 -19 -9 -10 2 -25 0 -34 -4 -9
-6 -18 -5 -22 0 -8 14 -35 2 -35 -16 0 -13 3 -13 15 -3 10 8 19 9 28 3 18 -15
77 -12 77 3 0 7 4 24 10 39 8 21 13 24 29 16 10 -6 21 -8 24 -4 7 6 -58 53
-73 53 -19 0 -10 18 13 25 20 7 19 8 -13 15 l-35 7 38 2 c21 0 48 6 59 12 15
8 23 8 32 -1 8 -9 8 -14 -1 -17 -18 -7 -4 -33 18 -33 21 0 26 -16 7 -23 -10
-4 -10 -8 1 -15 7 -5 11 -14 8 -19 -3 -5 8 -10 25 -11 20 -2 28 2 26 10 -3 7
-12 13 -21 13 -9 0 -17 5 -16 10 0 6 9 9 20 8 10 -2 19 2 19 7 0 6 -9 10 -20
10 -12 0 -17 5 -14 14 3 8 1 17 -5 21 -13 8 -15 45 -2 45 6 0 13 -4 16 -10 3
-5 13 -10 20 -10 11 0 14 13 13 53 -1 29 4 62 10 72 10 17 12 13 14 -30 1 -27
1 -65 0 -82 -1 -27 2 -33 18 -33 14 0 20 7 20 23 1 29 23 57 46 57 14 0 15 -3
6 -12 -19 -19 -15 -50 6 -46 12 2 18 14 19 38 3 53 14 100 24 100 4 0 10 19
12 43 2 27 4 17 5 -31 1 -49 6 -71 13 -67 19 13 27 49 13 63 -8 7 -14 26 -14
42 0 24 5 29 27 32 20 2 33 13 47 41 12 23 27 37 38 37 26 0 14 17 -25 33 -71
31 -89 37 -96 33 -4 -3 -13 -1 -21 5 -13 7 -12 9 3 9 9 0 17 4 17 8 0 5 19 14
41 21 l42 13 -32 19 c-30 18 -53 19 -389 18 l-357 -1 -31 -36z m101 -222 c3
-5 1 -10 -4 -10 -6 0 -11 5 -11 10 0 6 2 10 4 10 3 0 8 -4 11 -10z m55 -10 c0
-5 -4 -10 -10 -10 -5 0 -10 5 -10 10 0 6 5 10 10 10 6 0 10 -4 10 -10z m130 6
c0 -3 -4 -8 -10 -11 -5 -3 -10 -1 -10 4 0 6 5 11 10 11 6 0 10 -2 10 -4z m360
-46 c0 -5 -5 -10 -11 -10 -5 0 -7 5 -4 10 3 6 8 10 11 10 2 0 4 -4 4 -10z
m-320 -16 c0 -2 -9 -4 -20 -4 -11 0 -20 4 -20 9 0 5 9 7 20 4 11 -3 20 -7 20
-9z m-190 -14 c0 -5 -5 -10 -11 -10 -5 0 -7 5 -4 10 3 6 8 10 11 10 2 0 4 -4
4 -10z m-50 -10 c0 -5 -4 -10 -10 -10 -5 0 -10 5 -10 10 0 6 5 10 10 10 6 0
10 -4 10 -10z m414 -35 c7 -19 -5 -19 -30 0 -19 14 -19 14 2 15 12 0 24 -7 28
-15z m-54 -24 c0 -16 -14 -20 -27 -10 -19 17 -16 28 7 22 11 -3 20 -9 20 -12z
m-185 -1 c-3 -5 -12 -7 -20 -3 -21 7 -19 13 6 13 11 0 18 -4 14 -10z m-35 -55
c0 -8 -4 -15 -10 -15 -5 0 -10 7 -10 15 0 8 5 15 10 15 6 0 10 -7 10 -15z
m-210 -5 c0 -5 -2 -10 -4 -10 -3 0 -8 5 -11 10 -3 6 -1 10 4 10 6 0 11 -4 11
-10z m190 -40 c0 -5 -5 -10 -11 -10 -5 0 -7 5 -4 10 3 6 8 10 11 10 2 0 4 -4
4 -10z m100 -10 c0 -5 -4 -10 -10 -10 -5 0 -10 5 -10 10 0 6 5 10 10 10 6 0
10 -4 10 -10z m-220 -60 c0 -5 -4 -10 -10 -10 -5 0 -10 5 -10 10 0 6 5 10 10
10 6 0 10 -4 10 -10z m77 -132 c-3 -8 -6 -5 -6 6 -1 11 2 17 5 13 3 -3 4 -12
1 -19z m53 -114 c0 -8 -5 -12 -10 -9 -6 4 -8 11 -5 16 9 14 15 11 15 -7z"/>
<path d="M3265 3273 c-70 -14 -67 -13 -51 -29 9 -8 38 -18 66 -21 l50 -6 0 32
c0 32 -10 36 -65 24z"/>
<path d="M3018 3243 c7 -3 16 -2 19 1 4 3 -2 6 -13 5 -11 0 -14 -3 -6 -6z"/>
<path d="M2955 3169 c-4 -6 -5 -12 -2 -15 2 -3 7 2 10 11 7 17 1 20 -8 4z"/>
<path d="M3255 3139 c-16 -5 -40 -7 -53 -4 -33 8 -102 -13 -102 -30 0 -8 9
-15 20 -15 13 0 18 -5 14 -15 -3 -8 -11 -13 -16 -12 -19 4 -47 -57 -47 -105
-1 -34 -5 -48 -15 -48 -8 0 -16 -14 -19 -32 -3 -18 -10 -51 -15 -73 -5 -27 -4
-55 4 -85 6 -25 15 -99 19 -165 16 -258 19 -280 35 -280 8 0 20 -4 27 -8 7 -4
13 -1 15 8 2 12 14 5 43 -24 28 -30 34 -41 22 -41 -21 0 -21 -9 -1 -38 10 -14
13 -30 8 -45 -6 -19 -5 -20 9 -9 8 7 18 31 22 53 6 37 9 39 23 26 10 -8 26
-17 36 -18 26 -5 30 -23 11 -42 -22 -23 -18 -37 10 -37 l25 0 0 525 0 525 -22
-1 c-13 0 -36 -5 -53 -10z m-132 -181 l-11 -33 -1 45 c-1 33 2 41 11 32 8 -8
8 -20 1 -44z m166 -667 c7 -5 9 -11 5 -14 -5 -3 -15 1 -22 9 -14 16 -5 18 17
5z"/>
<path d="M2870 3090 c-8 -5 -11 -12 -7 -17 5 -4 11 -2 15 4 4 6 18 13 32 16
l25 4 -25 1 c-14 1 -32 -2 -40 -8z"/>
<path d="M2072 3038 c-16 -16 -15 -28 3 -28 8 0 15 9 15 20 0 23 -2 24 -18 8z"/>
<path d="M895 2980 c-3 -5 1 -10 10 -10 9 0 13 5 10 10 -3 6 -8 10 -10 10 -2
0 -7 -4 -10 -10z"/>
<path d="M1660 2981 c0 -5 -36 -9 -81 -9 -49 -1 -87 -6 -96 -14 -9 -7 -48 -12
-103 -13 -50 0 -82 -4 -74 -8 16 -9 19 -27 3 -27 -5 0 -7 5 -4 10 4 6 -17 10
-56 10 -55 0 -60 -2 -48 -16 12 -14 8 -15 -34 -9 -37 6 -51 4 -70 -12 -23 -18
-24 -20 -11 -63 8 -25 14 -57 14 -72 0 -27 8 -32 48 -31 6 1 12 -3 12 -8 0 -5
-11 -9 -25 -9 -26 0 -30 -6 -16 -28 6 -10 22 -12 54 -9 29 4 49 1 54 -6 5 -7
7 -133 5 -282 -1 -148 -2 -297 0 -330 1 -33 1 -81 0 -107 -11 -224 -10 -233 5
-245 13 -10 14 -15 4 -27 -15 -18 -20 -54 -20 -161 -1 -44 -6 -102 -13 -128
-8 -31 -9 -51 -2 -55 5 -4 8 -20 7 -37 -2 -16 -4 -99 -5 -182 -3 -153 -3 -153
19 -153 14 0 23 -6 23 -15 0 -8 -9 -15 -20 -15 -17 0 -20 -7 -20 -39 0 -46
-20 -71 -57 -71 -16 0 -27 -7 -30 -20 -6 -23 -19 -26 -26 -6 -4 11 -16 13 -44
9 -46 -7 -52 -11 -33 -23 13 -8 13 -10 0 -10 -11 0 -11 -3 -2 -12 15 -15 15
-23 -1 -40 -8 -7 -16 -34 -20 -59 -10 -77 -6 -79 184 -92 90 -5 209 -10 264
-10 55 0 102 -3 105 -7 3 -4 32 -10 66 -14 59 -6 61 -6 97 29 20 20 37 45 37
56 0 11 4 18 9 15 12 -8 93 93 85 105 -3 5 1 9 9 9 15 0 57 52 57 71 0 7 3 9
7 6 9 -10 32 25 33 51 0 13 4 20 10 17 12 -8 48 28 79 78 12 20 27 37 32 37 5
0 9 12 9 26 0 19 4 25 14 21 18 -7 37 15 71 80 4 6 27 33 51 60 25 26 56 66
69 88 13 22 33 47 45 55 25 18 25 32 0 48 -24 15 -26 32 -3 32 9 0 13 -3 10
-7 -8 -7 11 -33 24 -33 5 0 14 11 19 25 5 14 14 25 19 25 6 0 8 7 5 15 -4 10
0 15 11 15 11 0 15 5 11 15 -3 10 1 15 13 15 18 0 51 29 51 46 0 5 20 32 45
59 25 28 45 56 45 63 0 6 4 12 9 12 19 0 52 61 56 100 4 35 0 45 -25 69 -17
15 -30 33 -30 38 0 5 -8 17 -19 27 -10 9 -28 37 -41 61 -13 25 -29 45 -37 45
-7 0 -13 7 -13 15 0 9 -7 18 -15 21 -8 4 -12 10 -9 15 11 18 -7 31 -24 17 -13
-11 -15 -10 -10 10 5 16 1 25 -13 33 -11 5 -17 14 -14 18 2 5 -6 24 -18 42
-18 26 -29 33 -48 31 -19 -3 -22 -1 -11 9 6 7 12 16 12 20 0 13 -64 69 -77 69
-8 0 -13 13 -13 30 0 17 -4 30 -8 30 -5 0 -15 12 -22 28 -8 15 -25 38 -39 52
-15 14 -33 38 -41 53 -8 16 -26 41 -40 55 -13 15 -37 45 -52 67 -15 22 -39 56
-53 75 -14 19 -33 47 -43 62 -15 22 -21 25 -32 15 -10 -9 -11 -9 -6 0 10 18
-25 73 -46 73 -11 0 -15 5 -12 15 8 19 -21 65 -40 65 -8 0 -16 -6 -19 -12 -2
-7 -8 -10 -12 -5 -5 4 0 13 10 21 17 12 17 15 3 29 -9 9 -18 13 -22 10 -3 -4
-6 -1 -6 5 0 8 -19 12 -50 12 -27 0 -50 -4 -50 -9z m-45 -31 c3 -5 1 -10 -4
-10 -6 0 -11 5 -11 10 0 6 2 10 4 10 3 0 8 -4 11 -10z m95 -15 c0 -8 -7 -15
-15 -15 -9 0 -12 6 -9 15 4 8 10 15 15 15 5 0 9 -7 9 -15z m-193 -1 c-3 -3
-12 -4 -19 -1 -8 3 -5 6 6 6 11 1 17 -2 13 -5z m-259 -44 c7 -11 9 -20 4 -20
-4 0 -13 9 -20 20 -7 11 -9 20 -4 20 4 0 13 -9 20 -20z m209 14 c-3 -3 -12 -4
-19 -1 -8 3 -5 6 6 6 11 1 17 -2 13 -5z m288 -62 c-9 -9 -36 28 -29 40 4 5 13
0 21 -12 8 -12 12 -24 8 -28z m-380 18 c15 -6 8 -9 -27 -9 -26 -1 -50 4 -53 9
-8 12 52 12 80 0z m75 0 c0 -5 -4 -10 -9 -10 -6 0 -13 5 -16 10 -3 6 1 10 9
10 9 0 16 -4 16 -10z m-300 -46 c0 -8 -5 -12 -10 -9 -6 4 -8 11 -5 16 9 14 15
11 15 -7z m343 2 c4 -10 1 -13 -9 -9 -15 6 -19 23 -5 23 5 0 11 -7 14 -14z
m290 -3 c-7 -2 -19 -2 -25 0 -7 3 -2 5 12 5 14 0 19 -2 13 -5z m-168 -33 c4
-6 -7 -10 -27 -10 -25 0 -29 3 -18 10 19 13 37 13 45 0z m-352 -17 c-7 -2 -21
-2 -30 0 -10 3 -4 5 12 5 17 0 24 -2 18 -5z m-56 -48 c0 -8 -7 -15 -15 -15
-12 0 -12 3 -2 15 7 8 13 15 15 15 1 0 2 -7 2 -15z m460 -30 c17 -19 33 -41
36 -50 4 -8 11 -15 17 -15 5 0 10 -5 10 -11 0 -6 11 -25 25 -43 51 -63 111
-142 129 -171 11 -16 28 -39 39 -50 10 -11 31 -38 45 -60 14 -22 34 -49 46
-60 12 -11 27 -32 35 -48 8 -15 21 -27 28 -27 8 0 11 -5 8 -10 -4 -6 7 -25 24
-42 17 -18 31 -36 31 -40 0 -5 5 -6 12 -2 6 4 8 3 5 -3 -3 -5 2 -21 13 -34 10
-13 34 -44 52 -69 19 -25 45 -50 58 -57 14 -7 19 -13 11 -13 -11 0 -11 -3 -1
-15 7 -8 17 -12 23 -8 6 4 8 0 4 -11 -4 -10 1 -24 13 -36 11 -11 20 -27 20
-37 0 -9 -3 -14 -6 -10 -4 3 -22 -13 -40 -36 -19 -23 -39 -47 -44 -54 -6 -7
-10 -15 -10 -18 0 -3 -16 -20 -35 -38 -19 -17 -35 -37 -35 -43 0 -7 -11 -19
-25 -28 -14 -9 -25 -23 -25 -32 0 -8 -24 -39 -52 -68 -29 -29 -57 -59 -63 -67
-14 -20 -136 -169 -157 -193 -10 -10 -15 -23 -12 -28 3 -4 -2 -8 -10 -8 -23 0
-42 -40 -25 -52 11 -7 9 -8 -4 -4 -13 4 -27 -4 -45 -26 -15 -17 -27 -37 -27
-42 0 -6 -10 -18 -22 -26 -12 -9 -38 -37 -58 -64 -29 -37 -36 -54 -33 -78 l5
-30 -18 23 c-14 17 -19 20 -19 8 0 -8 -13 -28 -30 -44 -34 -32 -39 -47 -12
-39 14 5 14 4 2 -4 -8 -6 -17 -9 -21 -7 -3 3 -22 -11 -42 -30 -20 -19 -38 -35
-42 -35 -3 0 -5 19 -6 43 -1 36 -2 38 -9 17 -8 -24 -8 -23 -9 8 -1 17 3 32 9
32 6 0 10 40 9 101 0 72 -4 99 -12 96 -7 -2 -11 -11 -9 -21 2 -9 -2 -16 -8
-16 -5 0 -10 11 -10 25 0 18 5 25 20 25 12 0 20 7 20 18 0 14 -2 15 -10 2 -8
-13 -10 -12 -10 3 0 9 4 17 10 17 5 0 8 29 5 70 -2 38 0 72 6 75 5 4 2 19 -7
37 -9 16 -11 27 -5 23 19 -11 23 20 6 51 -8 17 -11 30 -5 32 13 5 13 49 1 56
-5 3 -7 16 -3 28 5 21 6 21 13 2 4 -10 9 62 10 161 4 404 4 691 -2 705 -3 8
-4 12 -2 8 17 -29 23 11 23 138 0 128 -2 148 -17 160 -17 13 -17 13 0 14 13 0
17 9 18 38 1 20 1 42 0 49 -2 13 29 19 110 22 51 1 57 -1 86 -34z m-417 21 c0
-11 -19 -15 -25 -6 -3 5 1 10 9 10 9 0 16 -2 16 -4z m30 -6 c0 -5 -2 -10 -4
-10 -3 0 -8 5 -11 10 -3 6 -1 10 4 10 6 0 11 -4 11 -10z m90 -69 c0 -5 3 -16
6 -25 3 -9 1 -16 -5 -16 -6 0 -11 7 -11 15 0 8 -4 15 -10 15 -5 0 -10 5 -10
10 0 6 7 10 15 10 8 0 15 -4 15 -9z m610 -114 c0 -3 -9 -3 -20 0 -20 5 -25 15
-14 26 6 6 34 -16 34 -26z m-520 -27 c0 -5 -4 -10 -10 -10 -5 0 -10 5 -10 10
0 6 5 10 10 10 6 0 10 -4 10 -10z m570 -33 c0 -8 -9 -13 -22 -11 -34 4 -35 5
-13 14 29 12 35 12 35 -3z m100 -17 c0 -5 -2 -10 -4 -10 -3 0 -8 5 -11 10 -3
6 -1 10 4 10 6 0 11 -4 11 -10z m-180 -28 c0 -15 -2 -15 -10 -2 -13 20 -13 33
0 25 6 -3 10 -14 10 -23z m-503 -34 c-3 -8 -6 -5 -6 6 -1 11 2 17 5 13 3 -3 4
-12 1 -19z m729 5 c11 -11 13 -18 5 -21 -10 -3 -41 20 -41 32 0 12 19 6 36
-11z m-796 -63 c0 -5 -2 -10 -4 -10 -3 0 -8 5 -11 10 -3 6 -1 10 4 10 6 0 11
-4 11 -10z m850 -21 c0 -5 -4 -9 -10 -9 -5 0 -10 7 -10 16 0 8 5 12 10 9 6 -3
10 -10 10 -16z m-925 -7 c-3 -3 -11 0 -18 7 -9 10 -8 11 6 5 10 -3 15 -9 12
-12z m725 8 c0 -5 -5 -10 -11 -10 -5 0 -7 5 -4 10 3 6 8 10 11 10 2 0 4 -4 4
-10z m-683 -16 c-3 -3 -12 -4 -19 -1 -8 3 -5 6 6 6 11 1 17 -2 13 -5z m833 -5
c0 -6 -24 -19 -36 -19 -2 0 -4 6 -4 14 0 9 9 14 20 13 11 -1 20 -4 20 -8z
m-810 -52 c0 -5 -4 -5 -10 -2 -5 3 -10 14 -10 23 0 15 2 15 10 2 5 -8 10 -19
10 -23z m77 -39 c-3 -8 -6 -5 -6 6 -1 11 2 17 5 13 3 -3 4 -12 1 -19z m-80
-43 c1 -30 -2 -55 -8 -55 -10 0 -12 69 -3 94 3 9 7 16 8 16 0 0 2 -25 3 -55z
m80 -7 c-3 -7 -5 -2 -5 12 0 14 2 19 5 13 2 -7 2 -19 0 -25z m880 -10 c-3 -8
-6 -5 -6 6 -1 11 2 17 5 13 3 -3 4 -12 1 -19z m-187 8 c0 -2 -7 -7 -16 -10 -8
-3 -12 -2 -9 4 6 10 25 14 25 6z m-870 -16 c0 -5 -4 -10 -10 -10 -5 0 -10 5
-10 10 0 6 5 10 10 10 6 0 10 -4 10 -10z m87 -187 c-3 -10 -5 -4 -5 12 0 17 2
24 5 18 2 -7 2 -21 0 -30z m1013 -48 c0 -8 -2 -15 -4 -15 -2 0 -6 7 -10 15 -3
8 -1 15 4 15 6 0 10 -7 10 -15z m195 -15 c3 -5 1 -10 -4 -10 -6 0 -11 5 -11
10 0 6 2 10 4 10 3 0 8 -4 11 -10z m-1128 -42 c-3 -8 -6 -5 -6 6 -1 11 2 17 5
13 3 -3 4 -12 1 -19z m1043 -3 c11 -13 10 -14 -4 -9 -9 3 -16 10 -16 15 0 13
6 11 20 -6z m115 -35 c3 -5 1 -10 -4 -10 -6 0 -11 5 -11 10 0 6 2 10 4 10 3 0
8 -4 11 -10z m-1238 -47 c-3 -10 -5 -4 -5 12 0 17 2 24 5 18 2 -7 2 -21 0 -30z
m1203 -15 c-10 -4 -21 -11 -25 -17 -3 -6 -11 -11 -17 -11 -6 0 -2 8 9 18 11 9
23 26 27 37 l8 20 8 -20 c5 -14 2 -22 -10 -27z m-1123 0 c-3 -8 -6 -5 -6 6 -1
11 2 17 5 13 3 -3 4 -12 1 -19z m1103 -69 c0 -10 -4 -19 -10 -19 -5 0 -10 12
-10 26 0 14 4 23 10 19 6 -3 10 -15 10 -26z m-170 5 c0 -8 -5 -12 -10 -9 -6 4
-8 11 -5 16 9 14 15 11 15 -7z m-980 -24 c0 -5 -2 -10 -4 -10 -3 0 -8 5 -11
10 -3 6 -1 10 4 10 6 0 11 -4 11 -10z m0 -60 c0 -5 -4 -10 -10 -10 -5 0 -10 5
-10 10 0 6 5 10 10 10 6 0 10 -4 10 -10z m855 -10 c-3 -5 -12 -10 -18 -10 -7
0 -6 4 3 10 19 12 23 12 15 0z m232 -6 c-3 -3 -12 -4 -19 -1 -8 3 -5 6 6 6 11
1 17 -2 13 -5z m-1037 -69 c0 -17 -2 -18 -24 -9 -23 9 -20 24 4 24 11 0 20 -7
20 -15z m760 -5 c0 -5 -4 -10 -10 -10 -5 0 -10 5 -10 10 0 6 5 10 10 10 6 0
10 -4 10 -10z m-830 -40 c0 -5 -4 -10 -10 -10 -5 0 -10 5 -10 10 0 6 5 10 10
10 6 0 10 -4 10 -10z m845 -21 c4 -6 13 -8 21 -5 8 3 14 1 14 -4 0 -6 -6 -10
-14 -10 -8 0 -21 -2 -28 -5 -9 -4 -14 2 -15 15 -2 21 11 27 22 9z m-855 -3 c0
-3 -4 -8 -10 -11 -5 -3 -10 -1 -10 4 0 6 5 11 10 11 6 0 10 -2 10 -4z m-3 -63
c-3 -10 -5 -4 -5 12 0 17 2 24 5 18 2 -7 2 -21 0 -30z m929 -10 c-7 -7 -26 7
-26 19 0 6 6 6 15 -2 9 -7 13 -15 11 -17z m-946 -43 c0 -5 -2 -10 -4 -10 -3 0
-8 5 -11 10 -3 6 -1 10 4 10 6 0 11 -4 11 -10z m696 -17 c-10 -10 -19 5 -10
18 6 11 8 11 12 0 2 -7 1 -15 -2 -18z m-696 -33 c0 -11 -4 -20 -8 -20 -4 0 -8
9 -8 20 0 11 4 20 8 20 4 0 8 -9 8 -20z m20 -50 c0 -5 -5 -10 -11 -10 -6 0 -8
-9 -4 -20 4 -11 2 -20 -4 -20 -12 0 -15 43 -4 53 10 10 23 8 23 -3z m770 -20
c0 -5 -4 -10 -10 -10 -5 0 -10 5 -10 10 0 6 5 10 10 10 6 0 10 -4 10 -10z
m-170 -31 c0 -6 -4 -7 -10 -4 -5 3 -10 11 -10 16 0 6 5 7 10 4 6 -3 10 -11 10
-16z m-43 5 c-3 -3 -12 -4 -19 -1 -8 3 -5 6 6 6 11 1 17 -2 13 -5z m13 -34 c0
-5 -2 -10 -4 -10 -3 0 -8 5 -11 10 -3 6 -1 10 4 10 6 0 11 -4 11 -10z m-590
-50 c0 -5 -2 -10 -4 -10 -3 0 -8 5 -11 10 -3 6 -1 10 4 10 6 0 11 -4 11 -10z
m-70 -60 c0 -5 -4 -10 -10 -10 -5 0 -10 5 -10 10 0 6 5 10 10 10 6 0 10 -4 10
-10z m70 -61 c0 -11 -4 -17 -10 -14 -5 3 -10 13 -10 21 0 8 5 14 10 14 6 0 10
-9 10 -21z m90 -81 c0 -5 -4 -8 -10 -8 -5 0 -10 10 -10 23 0 18 2 19 10 7 5
-8 10 -18 10 -22z m225 -57 c3 -5 1 -12 -5 -16 -5 -3 -10 1 -10 9 0 18 6 21
15 7z m-313 -20 c11 -12 10 -13 -5 -7 -10 3 -27 6 -38 6 -10 0 -19 4 -19 8 0
13 48 8 62 -7z m-172 -5 c0 -11 -19 -15 -25 -6 -3 5 1 10 9 10 9 0 16 -2 16
-4z m509 -26 c-5 -4 -16 -15 -24 -26 -8 -10 -15 -14 -15 -7 0 6 7 18 15 27 8
8 15 21 15 28 0 10 3 9 10 -2 5 -9 5 -17 -1 -20z m-612 14 c-3 -3 -12 -4 -19
-1 -8 3 -5 6 6 6 11 1 17 -2 13 -5z m338 -4 c3 -5 1 -10 -4 -10 -6 0 -11 5
-11 10 0 6 2 10 4 10 3 0 8 -4 11 -10z m352 -82 c-3 -7 -5 -2 -5 12 0 14 2 19
5 13 2 -7 2 -19 0 -25z m-597 12 c0 -5 -7 -10 -16 -10 -8 0 -12 5 -9 10 3 6
10 10 16 10 5 0 9 -4 9 -10z m250 -55 c0 -8 -9 -15 -20 -15 -25 0 -26 17 -2
23 9 3 18 5 20 6 1 0 2 -6 2 -14z m-227 -72 c-13 -2 -35 -2 -50 0 -16 2 -5 4
22 4 28 0 40 -2 28 -4z m284 -9 c-3 -3 -12 -4 -19 -1 -8 3 -5 6 6 6 11 1 17
-2 13 -5z m163 -14 c0 -5 -6 -10 -14 -10 -8 0 -18 5 -21 10 -3 6 3 10 14 10
12 0 21 -4 21 -10z"/>
<path d="M1640 2488 c1 -56 -11 -636 -20 -1018 -5 -201 -10 -375 -10 -387 0
-38 -30 -28 -31 10 0 27 -2 29 -9 12 -5 -11 -9 -35 -9 -52 -1 -18 -5 -33 -9
-33 -4 0 -9 -19 -11 -42 -1 -23 -4 -45 -7 -50 -3 -4 -1 -8 4 -8 5 0 18 12 27
27 10 16 32 42 50 58 17 17 76 86 131 155 95 121 254 315 416 509 43 51 78 99
78 106 0 11 -85 131 -180 255 -10 14 -83 111 -161 215 -199 266 -206 275 -235
275 -21 0 -24 -5 -24 -32z m-70 -1502 c0 -3 -4 -8 -10 -11 -5 -3 -10 -1 -10 4
0 6 5 11 10 11 6 0 10 -2 10 -4z"/>
<path d="M961 2924 c0 -11 3 -14 6 -6 3 7 2 16 -1 19 -3 4 -6 -2 -5 -13z"/>
<path d="M905 2919 c-4 -6 -5 -13 -2 -16 7 -7 27 6 27 18 0 12 -17 12 -25 -2z"/>
<path d="M2610 2842 c0 -4 7 -16 15 -26 15 -19 15 -19 15 1 0 11 -7 23 -15 27
-8 3 -15 2 -15 -2z"/>
<path d="M2721 2840 c0 -16 22 -50 33 -50 11 0 6 14 -14 40 -13 16 -20 20 -19
10z"/>
<path d="M2721 2754 c0 -11 3 -14 6 -6 3 7 2 16 -1 19 -3 4 -6 -2 -5 -13z"/>
<path d="M2865 2760 c3 -5 8 -10 11 -10 2 0 4 5 4 10 0 6 -5 10 -11 10 -5 0
-7 -4 -4 -10z"/>
<path d="M2320 2556 c0 -9 5 -16 10 -16 6 0 10 4 10 9 0 6 -4 13 -10 16 -5 3
-10 -1 -10 -9z"/>
<path d="M2380 2332 c6 -13 14 -21 18 -18 3 4 -2 14 -12 24 -18 16 -18 16 -6
-6z"/>
<path d="M952 2273 c-14 -15 -10 -43 7 -43 13 0 19 22 12 41 -5 15 -8 15 -19
2z"/>
<path d="M777 2194 c-8 -8 1 -24 14 -24 5 0 9 7 9 15 0 15 -12 20 -23 9z"/>
<path d="M1033 2193 c-18 -6 -16 -23 1 -23 17 0 30 16 19 23 -5 2 -14 2 -20 0z"/>
<path d="M774 2129 c-13 -5 -7 -8 24 -8 23 -1 42 1 42 3 0 8 -48 12 -66 5z"/>
<path d="M206 2044 c-4 -15 -5 -29 -2 -31 9 -9 26 8 26 27 0 30 -17 32 -24 4z"/>
<path d="M680 2020 c0 -5 5 -10 10 -10 6 0 10 5 10 10 0 6 -4 10 -10 10 -5 0
-10 -4 -10 -10z"/>
<path d="M663 1993 c-33 -6 -28 -23 7 -23 22 0 28 4 24 15 -4 8 -7 14 -8 14 0
-1 -11 -4 -23 -6z"/>
<path d="M650 1896 c0 -2 7 -7 16 -10 8 -3 12 -2 9 4 -6 10 -25 14 -25 6z"/>
<path d="M94 1839 c-3 -6 -1 -16 5 -22 8 -8 11 -5 11 11 0 24 -5 28 -16 11z"/>
<path d="M0 1824 c0 -8 5 -12 10 -9 6 4 8 11 5 16 -9 14 -15 11 -15 -7z"/>
<path d="M640 1820 c0 -5 5 -10 10 -10 6 0 10 5 10 10 0 6 -4 10 -10 10 -5 0
-10 -4 -10 -10z"/>
<path d="M100 1750 c0 -5 5 -10 10 -10 6 0 10 5 10 10 0 6 -4 10 -10 10 -5 0
-10 -4 -10 -10z"/>
<path d="M51 1714 c0 -11 3 -14 6 -6 3 7 2 16 -1 19 -3 4 -6 -2 -5 -13z"/>
<path d="M90 1690 c0 -22 3 -40 8 -40 4 0 7 18 7 40 1 22 -3 40 -7 40 -4 0 -8
-18 -8 -40z"/>
<path d="M151 1714 c0 -11 3 -14 6 -6 3 7 2 16 -1 19 -3 4 -6 -2 -5 -13z"/>
<path d="M141 1634 c0 -11 3 -14 6 -6 3 7 2 16 -1 19 -3 4 -6 -2 -5 -13z"/>
<path d="M0 1604 c0 -14 4 -23 10 -19 13 8 13 45 0 45 -5 0 -10 -12 -10 -26z"/>
<path d="M98 1525 c-3 -27 -3 -54 1 -58 13 -13 17 14 11 63 l-5 45 -7 -50z"/>
<path d="M2700 1431 c-29 -30 -157 -190 -290 -360 -77 -99 -235 -300 -253
-321 -7 -8 -59 -73 -116 -145 -218 -272 -214 -268 -250 -261 -15 3 -116 12
-226 21 -110 8 -247 20 -305 25 -58 6 -136 10 -175 10 -67 0 -72 1 -115 40
-47 42 -66 50 -56 25 3 -8 0 -28 -7 -43 -14 -31 -47 -71 -47 -56 0 6 4 14 9
19 5 6 12 19 15 31 5 16 0 23 -20 33 -33 14 -41 9 -19 -13 18 -17 14 -46 -5
-46 -6 0 -19 8 -28 17 -16 16 -17 15 -23 -13 -6 -35 -2 -44 12 -24 9 12 10 12
5 -3 -3 -10 -6 -21 -6 -23 0 -2 -9 -4 -20 -4 -11 0 -20 7 -20 15 0 8 -7 15
-15 15 -8 0 -15 -4 -15 -10 0 -5 -7 -10 -15 -10 -8 0 -15 5 -15 10 0 6 -9 10
-19 10 -12 0 -23 11 -30 30 -7 20 -17 30 -31 30 -11 0 -29 5 -40 10 -11 6 -29
15 -40 20 -22 11 -44 5 -35 -10 3 -5 -16 -20 -42 -32 l-48 -23 32 -3 c47 -5
41 -22 -7 -22 -22 0 -40 -4 -40 -10 0 -5 -25 -10 -55 -10 -30 0 -55 5 -55 10
0 14 -54 70 -67 70 -6 0 -16 -7 -23 -15 -19 -23 -40 -18 -40 9 0 33 -53 91
-75 82 -10 -3 -24 -1 -31 5 -11 9 -11 14 2 26 8 9 18 13 21 9 9 -8 34 14 27
25 -3 5 -23 9 -45 9 -43 0 -48 6 -21 26 15 12 14 13 -10 14 -25 0 -28 -3 -28
-35 0 -25 4 -33 14 -29 8 3 17 0 21 -6 4 -7 -2 -14 -14 -17 -21 -5 -21 -10
-21 -269 l0 -264 1665 0 1665 0 0 176 0 177 -50 -6 c-48 -6 -120 10 -92 20 6
3 12 12 12 20 0 14 -2 14 -18 0 -24 -22 -68 -22 -76 -1 -3 9 -13 14 -21 10
-27 -10 -29 2 -51 279 -24 321 -26 330 -51 333 -13 2 -23 7 -23 12 0 5 -24 9
-54 8 -32 -1 -61 4 -70 11 -20 17 -42 8 -49 -19 -4 -16 -2 -20 8 -16 9 3 12 0
8 -10 -6 -16 -29 -19 -38 -4 -12 20 -32 9 -43 -22 -7 -18 -10 -22 -8 -9 5 26
-41 131 -57 131 -7 0 -6 5 2 13 11 10 14 10 18 0 5 -14 43 -18 43 -5 -1 13
-24 38 -42 45 -23 8 -25 79 -3 97 11 9 14 25 12 52 -2 21 0 38 5 38 5 0 7 14
3 30 -8 35 7 60 36 60 24 0 25 16 1 22 -10 3 -24 -2 -32 -11z m-40 -96 c0 -8
-4 -15 -9 -15 -13 0 -22 16 -14 24 11 11 23 6 23 -9z m132 -393 c-19 -6 -44 6
-37 18 4 7 14 6 28 -2 14 -7 17 -13 9 -16z m-102 14 c0 -3 -4 -8 -10 -11 -5
-3 -10 -1 -10 4 0 6 5 11 10 11 6 0 10 -2 10 -4z m-1740 -536 c0 -5 -4 -10
-10 -10 -5 0 -10 5 -10 10 0 6 5 10 10 10 6 0 10 -4 10 -10z m-740 -60 c0 -5
-4 -10 -10 -10 -5 0 -10 5 -10 10 0 6 5 10 10 10 6 0 10 -4 10 -10z m2885 0
c-3 -5 -10 -10 -16 -10 -5 0 -9 5 -9 10 0 6 7 10 16 10 8 0 12 -4 9 -10z
m-2355 -90 c0 -5 -4 -10 -10 -10 -5 0 -10 5 -10 10 0 6 5 10 10 10 6 0 10 -4
10 -10z"/>
<path d="M2716 1394 c-9 -24 -2 -26 12 -4 7 11 8 20 3 20 -5 0 -12 -7 -15 -16z"/>
<path d="M2785 1110 c3 -5 8 -10 11 -10 2 0 4 5 4 10 0 6 -5 10 -11 10 -5 0
-7 -4 -4 -10z"/>
<path d="M2720 1049 c0 -5 7 -9 15 -9 21 0 19 -18 -2 -23 -11 -3 -7 -5 10 -6
24 -1 28 3 25 22 -2 15 -10 22 -25 23 -13 1 -23 -3 -23 -7z"/>
<path d="M60 910 c0 -5 5 -10 11 -10 5 0 7 5 4 10 -3 6 -8 10 -11 10 -2 0 -4
-4 -4 -10z"/>
<path d="M90 820 c0 -5 5 -10 11 -10 5 0 7 5 4 10 -3 6 -8 10 -11 10 -2 0 -4
-4 -4 -10z"/>
<path d="M95 780 c-3 -5 -1 -10 4 -10 6 0 11 5 11 10 0 6 -2 10 -4 10 -3 0 -8
-4 -11 -10z"/>
<path d="M0 670 c0 -11 7 -20 15 -20 8 0 15 9 15 20 0 11 -7 20 -15 20 -8 0
-15 -9 -15 -20z"/>
<path d="M1498 543 c7 -3 16 -2 19 1 4 3 -2 6 -13 5 -11 0 -14 -3 -6 -6z"/>
<path d="M301 433 c1 -10 5 -29 9 -43 7 -21 8 -19 9 18 1 23 -3 42 -9 42 -5 0
-10 -8 -9 -17z"/>
<path d="M736 434 c-7 -19 2 -37 15 -29 12 8 12 45 0 45 -5 0 -12 -7 -15 -16z"/>
<path d="M3257 430 c-6 -25 0 -29 41 -23 38 6 43 23 7 23 -14 0 -25 5 -25 10
0 18 -18 10 -23 -10z"/>
</g>
</svg>
