<svg width="35" height="35" viewBox="0 0 35 35" fill="none" xmlns="http://www.w3.org/2000/svg">
<g clip-path="url(#clip0_22_72)">
<path fill-rule="evenodd" clip-rule="evenodd" d="M27.3438 13.1252C27.3483 15.2344 26.6708 17.2885 25.4122 18.9811L17.5 29.5314L9.58781 18.9811C8.66142 17.7295 8.04516 16.276 7.78967 14.7399C7.53417 13.2039 7.64671 11.6291 8.11806 10.145C8.58941 8.66095 9.40612 7.30985 10.5011 6.20271C11.5961 5.09558 12.9381 4.26401 14.4169 3.7763C15.8957 3.28859 17.4691 3.15865 19.0078 3.39717C20.5466 3.63569 22.0068 4.23586 23.2686 5.14838C24.5304 6.06089 25.5576 7.25972 26.2661 8.64639C26.9745 10.0331 27.3438 11.568 27.3438 13.1252ZM30.625 13.1252C30.625 16.0564 29.6647 18.7602 28.0438 20.9433L19.5497 32.2658L17.5 35.0002L15.4481 32.2658L6.95625 20.9433C5.71963 19.2752 4.89645 17.3374 4.55434 15.2893C4.21224 13.2411 4.36099 11.141 4.98835 9.16157C5.61572 7.1821 6.7038 5.37973 8.1632 3.90255C9.6226 2.42537 11.4117 1.31554 13.3834 0.664245C15.3551 0.0129538 17.4532 -0.161211 19.5054 0.156061C21.5575 0.473333 23.5051 1.27299 25.1881 2.48932C26.8711 3.70565 28.2414 5.30395 29.1866 7.15289C30.1317 9.00183 30.6247 11.0486 30.625 13.1252ZM17.5 17.5002C18.6603 17.5002 19.7731 17.0392 20.5936 16.2187C21.4141 15.3983 21.875 14.2855 21.875 13.1252C21.875 11.9648 21.4141 10.852 20.5936 10.0316C19.7731 9.21109 18.6603 8.75016 17.5 8.75016C16.3397 8.75016 15.2269 9.21109 14.4064 10.0316C13.5859 10.852 13.125 11.9648 13.125 13.1252C13.125 14.2855 13.5859 15.3983 14.4064 16.2187C15.2269 17.0392 16.3397 17.5002 17.5 17.5002Z" fill="#F8F9FB"/>
</g>
<defs>
<clipPath id="clip0_22_72">
<rect width="35" height="35" fill="white"/>
</clipPath>
</defs>
</svg>
