<svg width="35" height="35" viewBox="0 0 35 35" fill="none" xmlns="http://www.w3.org/2000/svg">
<path d="M30.4022 21.6647L23.9613 18.7785L23.9436 18.7703C23.6092 18.6273 23.2444 18.5699 22.8823 18.6033C22.5202 18.6368 22.1721 18.7599 21.8695 18.9617C21.8339 18.9852 21.7997 19.0108 21.767 19.0383L18.4393 21.8752C16.3311 20.8512 14.1545 18.691 13.1305 16.6102L15.9715 13.2319C15.9988 13.1977 16.0248 13.1635 16.0494 13.1266C16.2469 12.8248 16.3667 12.479 16.3982 12.1197C16.4297 11.7605 16.3719 11.3991 16.2299 11.0676V11.0512L13.3356 4.59943C13.1479 4.16639 12.8252 3.80566 12.4157 3.57108C12.0062 3.33651 11.5318 3.24067 11.0633 3.29787C9.21071 3.54165 7.51022 4.45146 6.27941 5.85737C5.04861 7.26329 4.37166 9.06916 4.37501 10.9377C4.37501 21.7932 13.207 30.6252 24.0625 30.6252C25.9311 30.6286 27.7369 29.9516 29.1429 28.7208C30.5488 27.49 31.4586 25.7895 31.7024 23.9369C31.7597 23.4686 31.664 22.9943 31.4297 22.5848C31.1954 22.1753 30.8349 21.8525 30.4022 21.6647ZM24.0625 28.4377C19.4228 28.4326 14.9745 26.5873 11.6937 23.3065C8.41295 20.0257 6.56758 15.5774 6.56251 10.9377C6.55737 9.60264 7.03836 8.31134 7.91567 7.30497C8.79297 6.29859 10.0066 5.64597 11.3299 5.46896C11.3293 5.47442 11.3293 5.47991 11.3299 5.48537L14.201 11.9111L11.375 15.2936C11.3463 15.3265 11.3202 15.3617 11.2971 15.3988C11.0913 15.7146 10.9706 16.0781 10.9467 16.4541C10.9227 16.8302 10.9963 17.2061 11.1604 17.5453C12.399 20.0787 14.9516 22.6121 17.5123 23.8494C17.8541 24.0119 18.2321 24.083 18.6095 24.0557C18.987 24.0283 19.3509 23.9036 19.6656 23.6936C19.7008 23.67 19.7346 23.6445 19.7668 23.617L23.0904 20.7815L29.5162 23.6594H29.5313C29.3564 24.9846 28.7048 26.2006 27.6982 27.0801C26.6917 27.9596 25.3992 28.4422 24.0625 28.4377Z" fill="#F8F9FB"/>
</svg>
