<svg width="35" height="35" viewBox="0 0 35 35" fill="none" xmlns="http://www.w3.org/2000/svg">
<g clip-path="url(#clip0_22_54)">
<path d="M25.48 20.9738C25.0469 20.7565 22.9163 19.7094 22.5196 19.5636C22.1215 19.4192 21.8327 19.3478 21.5425 19.7823C21.2552 20.2155 20.424 21.1911 20.1717 21.4798C19.9194 21.7701 19.6656 21.8051 19.2325 21.5892C18.7994 21.3705 17.4023 20.914 15.7471 19.4382C14.4594 18.289 13.5888 16.8701 13.3365 16.4355C13.0842 16.0023 13.3102 15.7676 13.526 15.5517C13.7215 15.3578 13.9606 15.0457 14.1765 14.7934C14.3923 14.5411 14.4652 14.3588 14.611 14.0686C14.7554 13.7798 14.684 13.5276 14.5746 13.3103C14.4652 13.093 13.599 10.9594 13.2388 10.0917C12.8858 9.24734 12.5285 9.36255 12.2631 9.34797C11.9862 9.33703 11.709 9.33217 11.4319 9.33339C11.1431 9.33339 10.6735 9.4413 10.2769 9.87589C9.88021 10.309 8.76021 11.3576 8.76021 13.4911C8.76021 15.6232 10.3133 17.6838 10.5292 17.974C10.745 18.2642 13.5858 22.6407 17.9331 24.5176C18.9671 24.9638 19.7735 25.2307 20.4035 25.429C21.4419 25.7601 22.3869 25.7134 23.1321 25.6011C23.9648 25.4771 25.6958 24.5526 26.0575 23.5405C26.4192 22.5284 26.4192 21.6607 26.3098 21.4798C26.2019 21.299 25.9146 21.1911 25.48 20.9738ZM17.5729 31.7698H17.5671C14.9855 31.7701 12.4514 31.076 10.2302 29.7603L9.70375 29.4482L4.24813 30.8803L5.70355 25.5603L5.36084 25.0148C3.91773 22.7169 3.15429 20.0575 3.15875 17.344C3.16021 9.39609 9.62792 2.92984 17.5788 2.92984C21.4288 2.92984 25.0483 4.43193 27.7696 7.15609C29.1126 8.49258 30.177 10.0823 30.9012 11.8331C31.6254 13.5839 31.995 15.461 31.9885 17.3557C31.9842 25.3036 25.5179 31.7698 17.5729 31.7698ZM29.8419 5.08672C28.2348 3.46964 26.323 2.18742 24.217 1.31428C22.111 0.441149 19.8527 -0.0055493 17.5729 5.20319e-05C8.01355 5.20319e-05 0.233338 7.78026 0.228963 17.3426C0.228963 20.3992 1.02667 23.383 2.5448 26.0123L0.0831299 35.0001L9.27792 32.588C11.8211 33.9722 14.6702 34.6982 17.5656 34.6996H17.5729C27.1308 34.6996 34.9125 26.9194 34.9169 17.3557C34.924 15.0767 34.4791 12.8189 33.608 10.713C32.7369 8.60703 31.4569 6.69473 29.8419 5.08672Z" fill="#F8F9FB"/>
</g>
<defs>
<clipPath id="clip0_22_54">
<rect width="35" height="35" fill="white"/>
</clipPath>
</defs>
</svg>
